<?xml version="1.0" encoding="utf-8"?>
<!-- Generator: Adobe Illustrator 19.0.0, SVG Export Plug-In . SVG Version: 6.00 Build 0)  -->
<svg version="1.1" id="Layer_1" xmlns="http://www.w3.org/2000/svg" xmlns:xlink="http://www.w3.org/1999/xlink" x="0px" y="0px"
	 viewBox="-289 559 60 20" style="enable-background:new -289 559 60 20;" xml:space="preserve">
<style type="text/css">
	.st0{fill:#FFFFFF;fill-opacity:0.8;}
	.st1{fill:none;stroke:#FFFFFF;stroke-width:0.5;}
</style>
<path class="st0" d="M-266.1,562.4v1.1l-22.3-1.4v-0.8L-266.1,562.4z"/>
<path class="st0" d="M-263.6,562.4l22.3,0.4v0.5l-22.2,0.2l0-0.5"/>
<path class="st1" d="M-233.4,561.9l-5.6,5.3l-11.5-0.3c0,0-5.2-2.8-13.6-3v-2h1.3c0,0-1.8-2.7-3.8,0h1.3v2h-1.8c0,0-0.2,2.2-4.1,3
	l-2.3,0.8c0,0-0.4,0-1.5,1c-1.2,1-0.3,0.3-0.3,0.3l-2.6,2.3c0,0-3.2,0.4-4.4,2.3c0,0-1,1.5,5.9,1.5h18.2c0,0,2.5,0,4.9-2l2.6-2.3
	l6.9-0.8c0,0,5.8-1.7,7.9-0.5l2.1-0.3c0,0,1.3-0.5,0.2-1.2c0,0-0.1-0.1-0.2-0.1c-1.4-0.7,0-0.5,0-0.5l3.6-4.8
	C-230.3,562.6-231.3,561.5-233.4,561.9z"/>
<path class="st1" d="M-261.2,575.1c0-1.4,2.9-0.7,2.9,0.3c0,1,0,2.6,0,2.6h-2.9C-261.2,578-261.2,576.5-261.2,575.1z"/>
<path class="st1" d="M-272.3,575.1c0-1.4,2.9-0.7,2.9,0.3c0,1,0,2.6,0,2.6h-2.9C-272.3,578-272.3,576.5-272.3,575.1z"/>
<path class="st0" d="M-278.3,570.9c0,0,3,1.4,3.8,0.8c0.9-0.6,3.9-4.2,2.3-4.6C-273.8,566.8-278.3,570.9-278.3,570.9z"/>
<path class="st0" d="M-257,577.6v0.8h-17.9c0,0-1.7,0.1-1.8-0.8l0.8-0.5c0,0,0.2,0.4,1,0.5H-257z"/>
<path class="st1" d="M-269.8,567.7l-3.1,4.3c0,0,0,0.9,1.3,1h9.7c0,0,0.7-0.2,1-0.8l1.5-4.1c0,0,0-0.5-0.5-0.5
	C-260.3,567.7-269.8,567.7-269.8,567.7z"/>
<path class="st0" d="M-269.5,568.2l-2.1,3h2.3l1.5-3H-269.5z"/>
<path class="st0" d="M-266.2,571.2h-2.1l1.5-3h2.1L-266.2,571.2z"/>
<path class="st0" d="M-263.7,568.2h3.6l-1,3h-4.1L-263.7,568.2z"/>
<path class="st1" d="M-271.7,567.7h37.7"/>
<path class="st1" d="M-267,568l-2.6,4.8"/>
<path class="st1" d="M-263.9,568l-2.6,4.8"/>
<path class="st1" d="M-269,566.2c0,0,9.5-2.3,18.2,0.8"/>
</svg>
